<?xml version="1.0" encoding="utf-8"?><!DOCTYPE svg PUBLIC "-//W3C//DTD SVG 1.1//EN" "http://www.w3.org/Graphics/SVG/1.1/DTD/svg11.dtd"><svg id="016-weibo" width="256" height="256" style="width:256px;height:256px;" version="1.1" xmlns="http://www.w3.org/2000/svg" viewBox="0 0 1024 1024" enable-background="new 0 0 1024 1024" xml:space="preserve"><path fill="#666" d="M758.29 396.34 q-28 -8 -24 -18 q2 -9.99 6 -11.99 q2 -2 12 -38 q10 -33.99 -22 -71.99 q-49.99 -37.99 -119.98 -17.99 q-71.99 19.99 -77.99 23.99 q-37.99 12 -37.99 -2 q-2 -14 6 -45.99 q4 -42 -26 -77.99 q-30 -35.99 -133.98 -4 q-109.98 45.99 -185.97 127.98 q-75.99 81.99 -79.99 91.99 q-59.99 87.99 -67.99 143.98 q-8 55.99 -6 57.99 q24 141.98 143.98 197.97 q117.98 55.99 243.96 61.99 q133.98 10 271.96 -41.99 q135.98 -52 193.97 -163.98 q44 -107.98 -5.99 -157.98 q-50 -49.99 -89.99 -53.99 l0 0 ZM402.34 760.29 q-129.98 4 -213.97 -49.99 q-85.98 -52 -89.98 -137.98 q4 -85.99 89.98 -143.98 q83.99 -57.99 213.97 -65.99 q127.98 -6 213.97 39.99 q85.99 47.99 87.99 131.98 q-2 87.99 -87.99 151.98 q-85.99 63.99 -213.97 73.99 l0 0 ZM368.35 436.34 q-119.99 23.99 -137.98 95.98 q-18 71.99 -12 79.99 q0 4 6 30 q6 25.99 39.99 45.99 q75.99 37.99 143.98 22 q67.99 -16 107.98 -65.99 q40 -60 8 -137.98 q-31.99 -75.99 -155.97 -69.99 l0 0 ZM326.35 658.3 q-23.99 2 -39.99 -9.99 q-16 -12 -16 -32 q-2 -20 14 -37.99 q14 -16 39.99 -18 q26 -2 42 10 q15.99 11.99 15.99 31.99 q0 22 -15.99 36 q-16 15.99 -40 19.99 l0 0 ZM424.34 572.32 q-18 11.99 -28 -2 q-6 -8 -4 -18 q2 -8 10 -14 q22 -14 32 2 q8 18 -10 32 l0 0 ZM840.28 328.35 q21.99 -2 27.99 -25.99 q4 -131.98 -67.99 -147.98 q-71.99 -14 -83.98 -6 q-12 0 -20 8 q-8 8 -8 19.99 q0 12 8 18 q8 8 20 10 q87.98 -12 95.98 37.99 q6 50 0 58 q2 11.99 10 19.99 q6 8 18 8 l0 0 ZM820.28 6.4 q-45.99 -8 -83.99 -6 q-39.99 4 -53.99 6 l-4 2 q-28 10 -29.99 37.99 q0 18 11.99 28 q12 12 28 14 l14 -4 q10 -2 21.99 -6 q18 -8 83.99 8 q63.99 16 115.98 89.98 q24 58 20 91.99 q-4 36 -8 41.99 l-4 12 q-2 12 -2 28 q0 16 12 25.99 q10 12 26 12 q14 0 25.99 -6 q10 -4 14 -25.99 q42 -165.98 -27.99 -249.97 q-71.99 -81.98 -159.98 -99.98 l0 0 Z"/></svg>