<?xml version="1.0" encoding="utf-8"?><!DOCTYPE svg PUBLIC "-//W3C//DTD SVG 1.1//EN" "http://www.w3.org/Graphics/SVG/1.1/DTD/svg11.dtd"><svg id="022-wechat" width="256" height="256" style="width:256px;height:256px;" version="1.1" xmlns="http://www.w3.org/2000/svg" viewBox="0 0 1024 1024" enable-background="new 0 0 1024 1024" xml:space="preserve"><path fill="#666" d="M693.52 252.34 q16.28 0 34.19 1.63 q-26.05 -110.71 -126.99 -182.34 q-102.56 -70 -239.31 -71.63 q-153.03 3.26 -255.59 89.54 q-102.56 86.28 -105.82 218.15 q0 74.89 39.07 135.12 q37.45 61.86 105.82 109.08 l-35.82 109.07 l126.99 -63.49 l63.49 13.02 q29.3 4.89 61.86 4.89 l34.19 0 q-9.77 -37.45 -11.4 -76.52 q3.26 -122.1 89.54 -203.5 q86.29 -79.77 219.78 -83.02 l0 0 ZM498.16 154.66 q21.17 0 34.19 11.39 q11.4 13.03 11.4 32.56 q0 21.17 -11.4 32.56 q-13.02 13.03 -34.19 13.03 q-21.16 0 -37.44 -13.03 q-16.28 -11.39 -16.28 -32.56 q0 -19.53 16.28 -32.56 q16.28 -11.39 37.44 -11.39 l0 0 ZM244.2 244.2 q-21.17 0 -37.45 -13.03 q-16.28 -11.39 -16.28 -32.56 q0 -19.53 16.28 -32.56 q16.28 -11.39 37.45 -11.39 q21.16 0 34.18 11.39 q11.4 13.03 11.4 32.56 q0 21.17 -11.4 32.56 q-13.02 13.03 -34.18 13.03 l0 0 ZM1024 533.98 q-4.88 -110.7 -92.79 -185.59 q-89.54 -73.26 -214.9 -76.52 q-133.49 3.26 -219.78 76.52 q-86.28 74.89 -89.53 185.59 q3.25 112.33 89.53 185.59 q86.29 74.88 219.78 78.14 q53.72 -3.26 107.45 -17.91 l99.31 53.73 l-26.05 -91.17 q55.35 -40.7 91.16 -94.42 q34.19 -52.1 35.82 -113.96 l0 0 ZM615.38 488.39 q-13.03 0 -24.42 -11.39 q-11.4 -9.77 -11.4 -24.42 q0 -13.03 11.4 -24.42 q11.39 -11.4 24.42 -11.4 q21.16 0 34.18 11.4 q11.4 11.39 11.4 24.42 q0 14.65 -11.4 24.42 q-13.02 11.39 -34.18 11.39 l0 0 ZM815.62 488.39 q-14.65 0 -24.42 -11.39 q-11.4 -9.77 -11.4 -24.42 q0 -13.03 11.4 -24.42 q9.77 -11.4 24.42 -11.4 q19.53 0 32.56 11.4 q11.39 11.39 11.39 24.42 q0 14.65 -11.39 24.42 q-13.03 11.39 -32.56 11.39 l0 0 Z"/></svg>