<?xml version="1.0" encoding="utf-8"?><!DOCTYPE svg PUBLIC "-//W3C//DTD SVG 1.1//EN" "http://www.w3.org/Graphics/SVG/1.1/DTD/svg11.dtd"><svg id="029-feedback" width="256" height="256" style="width:256px;height:256px;" version="1.1" xmlns="http://www.w3.org/2000/svg" viewBox="0 0 1024 1024" enable-background="new 0 0 1024 1024" xml:space="preserve"><path fill="#666" d="M966 796 l-908 0 q-24 -2 -40 -18 q-18 -16 -18 -42 l0 -676 q0 -26 18 -42 q16 -16 40 -18 l908 0 q24 2 42 18 q16 16 16 42 l0 676 q0 26 -16 42 q-18 16 -42 18 l0 0 ZM964 60 l-906 0 l2 676 l904 0 l0 -676 l0 0 ZM514 488 q-14 0 -22 -10 q-10 -10 -8 -22 q0 -12 10 -22 l332 -270 q10 -8 22 -8 q12 2 20 12 q8 10 8 22 q-2 12 -12 20 l-332 272 q-8 6 -18 6 l0 0 ZM510 488 q-10 0 -18 -6 l-332 -272 q-10 -8 -10 -20 q-2 -12 6 -22 q8 -10 20 -12 q12 0 22 8 l332 270 q10 10 12 22 q0 12 -8 22 q-10 10 -24 10 l0 0 Z"/></svg>