<?xml version="1.0" encoding="utf-8"?><!DOCTYPE svg PUBLIC "-//W3C//DTD SVG 1.1//EN" "http://www.w3.org/Graphics/SVG/1.1/DTD/svg11.dtd"><svg id="045-play-prev" width="256" height="256" style="width:256px;height:256px;" version="1.1" xmlns="http://www.w3.org/2000/svg" viewBox="0 0 1024 1024" enable-background="new 0 0 1024 1024" xml:space="preserve"><path fill="#666" d="M988 876 q-10 0 -18 -4 l-676 -380 q-16 -10 -16 -32 q-2 -20 14 -32 l676 -422 q18 -10 38 0 q18 10 18 30 l0 804 q0 20 -18 30 q-8 6 -18 6 l0 0 ZM384 458 l568 318 l0 -674 l-568 356 l0 0 ZM36 876 q-16 0 -26 -12 q-10 -10 -10 -24 l0 -804 q0 -14 10 -26 q10 -10 26 -10 q16 0 26 10 q10 12 10 26 l0 804 q0 14 -10 24 q-10 12 -26 12 l0 0 Z"/></svg>